{
    "asset" : {
        "generator" : "Khronos glTF Blender I/O v1.7.33",
        "version" : "2.0"
    },
    "scene" : 0,
    "scenes" : [
        {
            "name" : "Scene",
            "nodes" : [
                0
            ]
        }
    ],
    "nodes" : [
        {
            "mesh" : 0,
            "name" : "Cyberpunk_Grated_Window_1"
        }
    ],
    "meshes" : [
        {
            "name" : "Cyberpunk_Grated_Window_1.001",
            "primitives" : [
                {
                    "attributes" : {
                        "POSITION" : 0,
                        "NORMAL" : 1
                    },
                    "indices" : 2
                }
            ]
        }
    ],
    "accessors" : [
        {
            "bufferView" : 0,
            "componentType" : 5126,
            "count" : 4621,
            "max" : [
                1.244877815246582,
                0.4858059883117676,
                1.1445671319961548
            ],
            "min" : [
                -1.244877815246582,
                -0.4858059883117676,
                0
            ],
            "type" : "VEC3"
        },
        {
            "bufferView" : 1,
            "componentType" : 5126,
            "count" : 4621,
            "type" : "VEC3"
        },
        {
            "bufferView" : 2,
            "componentType" : 5123,
            "count" : 6120,
            "type" : "SCALAR"
        }
    ],
    "bufferViews" : [
        {
            "buffer" : 0,
            "byteLength" : 55452,
            "byteOffset" : 0
        },
        {
            "buffer" : 0,
            "byteLength" : 55452,
            "byteOffset" : 55452
        },
        {
            "buffer" : 0,
            "byteLength" : 12240,
            "byteOffset" : 110904
        }
    ],
    "buffers" : [
        {
            "byteLength" : 123144,
            "uri" : "data:application/octet-stream;base64,"
        }
    ]
}
