{
    "asset" : {
        "generator" : "Khronos glTF Blender I/O v1.7.33",
        "version" : "2.0"
    },
    "scene" : 0,
    "scenes" : [
        {
            "name" : "Scene",
            "nodes" : [
                0
            ]
        }
    ],
    "nodes" : [
        {
            "mesh" : 0,
            "name" : "Elven_Window_3"
        }
    ],
    "meshes" : [
        {
            "name" : "Elven_Window_3",
            "primitives" : [
                {
                    "attributes" : {
                        "POSITION" : 0,
                        "NORMAL" : 1
                    },
                    "indices" : 2
                }
            ]
        }
    ],
    "accessors" : [
        {
            "bufferView" : 0,
            "componentType" : 5126,
            "count" : 111676,
            "max" : [
                0.6734563708305359,
                1.888403296470642,
                1.415854811668396
            ],
            "min" : [
                -0.6694958806037903,
                -1.1668452024459839,
                -2.1457672119140625e-06
            ],
            "type" : "VEC3"
        },
        {
            "bufferView" : 1,
            "componentType" : 5126,
            "count" : 111676,
            "type" : "VEC3"
        },
        {
            "bufferView" : 2,
            "componentType" : 5125,
            "count" : 111708,
            "type" : "SCALAR"
        }
    ],
    "bufferViews" : [
        {
            "buffer" : 0,
            "byteLength" : 1340112,
            "byteOffset" : 0
        },
        {
            "buffer" : 0,
            "byteLength" : 1340112,
            "byteOffset" : 1340112
        },
        {
            "buffer" : 0,
            "byteLength" : 446832,
            "byteOffset" : 2680224
        }
    ],
    "buffers" : [
        {
            "byteLength" : 3127056,
            "uri" : "data:application/octet-stream;base64,"
        }
    ]
}
