{
    "asset" : {
        "generator" : "Khronos glTF Blender I/O v1.7.33",
        "version" : "2.0"
    },
    "scene" : 0,
    "scenes" : [
        {
            "name" : "Scene",
            "nodes" : [
                0,
                1,
                2,
                3,
                4
            ]
        }
    ],
    "nodes" : [
        {
            "mesh" : 0,
            "name" : "baseCenterPlane"
        },
        {
            "mesh" : 1,
            "name" : "baseLeftPlane",
            "translation" : [
                -10,
                0,
                0
            ]
        },
        {
            "mesh" : 2,
            "name" : "baseRightPlane",
            "translation" : [
                10,
                0,
                0
            ]
        },
        {
            "mesh" : 3,
            "name" : "baseUpPlane",
            "translation" : [
                0,
                0,
                -10
            ]
        },
        {
            "mesh" : 4,
            "name" : "baseDownPlane",
            "translation" : [
                0,
                0,
                10
            ]
        }
    ],
    "materials" : [
        {
            "doubleSided" : true,
            "emissiveFactor" : [
                1,
                1,
                1
            ],
            "name" : "Material.001",
            "pbrMetallicRoughness" : {
                "baseColorFactor" : [
                    0.800000011920929,
                    0.800000011920929,
                    0.800000011920929,
                    1
                ],
                "metallicFactor" : 0,
                "roughnessFactor" : 0
            }
        }
    ],
    "meshes" : [
        {
            "name" : "Plane",
            "primitives" : [
                {
                    "attributes" : {
                        "POSITION" : 0,
                        "NORMAL" : 1,
                        "TEXCOORD_0" : 2
                    },
                    "indices" : 3,
                    "material" : 0
                }
            ]
        },
        {
            "name" : "Plane.001",
            "primitives" : [
                {
                    "attributes" : {
                        "POSITION" : 4,
                        "NORMAL" : 5,
                        "TEXCOORD_0" : 6
                    },
                    "indices" : 7,
                    "material" : 0
                }
            ]
        },
        {
            "name" : "Plane.002",
            "primitives" : [
                {
                    "attributes" : {
                        "POSITION" : 8,
                        "NORMAL" : 9,
                        "TEXCOORD_0" : 10
                    },
                    "indices" : 7,
                    "material" : 0
                }
            ]
        },
        {
            "name" : "Plane.003",
            "primitives" : [
                {
                    "attributes" : {
                        "POSITION" : 11,
                        "NORMAL" : 12,
                        "TEXCOORD_0" : 13
                    },
                    "indices" : 14,
                    "material" : 0
                }
            ]
        },
        {
            "name" : "Plane.004",
            "primitives" : [
                {
                    "attributes" : {
                        "POSITION" : 15,
                        "NORMAL" : 16,
                        "TEXCOORD_0" : 17
                    },
                    "indices" : 18,
                    "material" : 0
                }
            ]
        }
    ],
    "accessors" : [
        {
            "bufferView" : 0,
            "componentType" : 5126,
            "count" : 56,
            "max" : [
                1.5,
                0.3147437274456024,
                1.5
            ],
            "min" : [
                -1.5,
                0,
                -1.5
            ],
            "type" : "VEC3"
        },
        {
            "bufferView" : 1,
            "componentType" : 5126,
            "count" : 56,
            "type" : "VEC3"
        },
        {
            "bufferView" : 2,
            "componentType" : 5126,
            "count" : 56,
            "type" : "VEC2"
        },
        {
            "bufferView" : 3,
            "componentType" : 5123,
            "count" : 84,
            "type" : "SCALAR"
        },
        {
            "bufferView" : 4,
            "componentType" : 5126,
            "count" : 56,
            "max" : [
                1.5,
                0.3147437274456024,
                1.5
            ],
            "min" : [
                -1.5,
                0,
                -1.5
            ],
            "type" : "VEC3"
        },
        {
            "bufferView" : 5,
            "componentType" : 5126,
            "count" : 56,
            "type" : "VEC3"
        },
        {
            "bufferView" : 6,
            "componentType" : 5126,
            "count" : 56,
            "type" : "VEC2"
        },
        {
            "bufferView" : 7,
            "componentType" : 5123,
            "count" : 84,
            "type" : "SCALAR"
        },
        {
            "bufferView" : 8,
            "componentType" : 5126,
            "count" : 56,
            "max" : [
                1.5,
                0.3147437274456024,
                1.5
            ],
            "min" : [
                -1.5,
                0,
                -1.5
            ],
            "type" : "VEC3"
        },
        {
            "bufferView" : 9,
            "componentType" : 5126,
            "count" : 56,
            "type" : "VEC3"
        },
        {
            "bufferView" : 10,
            "componentType" : 5126,
            "count" : 56,
            "type" : "VEC2"
        },
        {
            "bufferView" : 11,
            "componentType" : 5126,
            "count" : 56,
            "max" : [
                1.5,
                0.3147437274456024,
                1.5
            ],
            "min" : [
                -1.5,
                0,
                -1.5
            ],
            "type" : "VEC3"
        },
        {
            "bufferView" : 12,
            "componentType" : 5126,
            "count" : 56,
            "type" : "VEC3"
        },
        {
            "bufferView" : 13,
            "componentType" : 5126,
            "count" : 56,
            "type" : "VEC2"
        },
        {
            "bufferView" : 14,
            "componentType" : 5123,
            "count" : 84,
            "type" : "SCALAR"
        },
        {
            "bufferView" : 15,
            "componentType" : 5126,
            "count" : 56,
            "max" : [
                1.5,
                0.3147437274456024,
                1.5
            ],
            "min" : [
                -1.5,
                0,
                -1.5
            ],
            "type" : "VEC3"
        },
        {
            "bufferView" : 16,
            "componentType" : 5126,
            "count" : 56,
            "type" : "VEC3"
        },
        {
            "bufferView" : 17,
            "componentType" : 5126,
            "count" : 56,
            "type" : "VEC2"
        },
        {
            "bufferView" : 18,
            "componentType" : 5123,
            "count" : 84,
            "type" : "SCALAR"
        }
    ],
    "bufferViews" : [
        {
            "buffer" : 0,
            "byteLength" : 672,
            "byteOffset" : 0
        },
        {
            "buffer" : 0,
            "byteLength" : 672,
            "byteOffset" : 672
        },
        {
            "buffer" : 0,
            "byteLength" : 448,
            "byteOffset" : 1344
        },
        {
            "buffer" : 0,
            "byteLength" : 168,
            "byteOffset" : 1792
        },
        {
            "buffer" : 0,
            "byteLength" : 672,
            "byteOffset" : 1960
        },
        {
            "buffer" : 0,
            "byteLength" : 672,
            "byteOffset" : 2632
        },
        {
            "buffer" : 0,
            "byteLength" : 448,
            "byteOffset" : 3304
        },
        {
            "buffer" : 0,
            "byteLength" : 168,
            "byteOffset" : 3752
        },
        {
            "buffer" : 0,
            "byteLength" : 672,
            "byteOffset" : 3920
        },
        {
            "buffer" : 0,
            "byteLength" : 672,
            "byteOffset" : 4592
        },
        {
            "buffer" : 0,
            "byteLength" : 448,
            "byteOffset" : 5264
        },
        {
            "buffer" : 0,
            "byteLength" : 672,
            "byteOffset" : 5712
        },
        {
            "buffer" : 0,
            "byteLength" : 672,
            "byteOffset" : 6384
        },
        {
            "buffer" : 0,
            "byteLength" : 448,
            "byteOffset" : 7056
        },
        {
            "buffer" : 0,
            "byteLength" : 168,
            "byteOffset" : 7504
        },
        {
            "buffer" : 0,
            "byteLength" : 672,
            "byteOffset" : 7672
        },
        {
            "buffer" : 0,
            "byteLength" : 672,
            "byteOffset" : 8344
        },
        {
            "buffer" : 0,
            "byteLength" : 448,
            "byteOffset" : 9016
        },
        {
            "buffer" : 0,
            "byteLength" : 168,
            "byteOffset" : 9464
        }
    ],
    "buffers" : [
        {
            "byteLength" : 9632,
            "uri" : "data:application/octet-stream;base64,"
        }
    ]
}
