{
    "asset" : {
        "generator" : "Khronos glTF Blender I/O v1.7.33",
        "version" : "2.0"
    },
    "scene" : 0,
    "scenes" : [
        {
            "name" : "Scene",
            "nodes" : [
                0,
                1,
                2,
                3
            ]
        }
    ],
    "nodes" : [
        {
            "mesh" : 0,
            "name" : "doorPlaneUp"
        },
        {
            "mesh" : 1,
            "name" : "doorPlaneLeft"
        },
        {
            "mesh" : 2,
            "name" : "doorPlaneDown"
        },
        {
            "mesh" : 3,
            "name" : "doorPlaneRight"
        }
    ],
    "materials" : [
        {
            "doubleSided" : true,
            "emissiveFactor" : [
                1,
                1,
                1
            ],
            "name" : "DoorMat",
            "pbrMetallicRoughness" : {
                "baseColorFactor" : [
                    0.800000011920929,
                    0.800000011920929,
                    0.800000011920929,
                    1
                ],
                "metallicFactor" : 0,
                "roughnessFactor" : 0.5
            }
        }
    ],
    "meshes" : [
        {
            "name" : "Plane.022",
            "primitives" : [
                {
                    "attributes" : {
                        "POSITION" : 0,
                        "NORMAL" : 1,
                        "TEXCOORD_0" : 2
                    },
                    "indices" : 3,
                    "material" : 0
                }
            ]
        },
        {
            "name" : "Plane.023",
            "primitives" : [
                {
                    "attributes" : {
                        "POSITION" : 4,
                        "NORMAL" : 5,
                        "TEXCOORD_0" : 6
                    },
                    "indices" : 7,
                    "material" : 0
                }
            ]
        },
        {
            "name" : "Plane.024",
            "primitives" : [
                {
                    "attributes" : {
                        "POSITION" : 8,
                        "NORMAL" : 9,
                        "TEXCOORD_0" : 10
                    },
                    "indices" : 11,
                    "material" : 0
                }
            ]
        },
        {
            "name" : "Plane.025",
            "primitives" : [
                {
                    "attributes" : {
                        "POSITION" : 12,
                        "NORMAL" : 13,
                        "TEXCOORD_0" : 14
                    },
                    "indices" : 15,
                    "material" : 0
                }
            ]
        }
    ],
    "accessors" : [
        {
            "bufferView" : 0,
            "componentType" : 5126,
            "count" : 96,
            "max" : [
                1,
                5.038303375244141,
                -2.4432010650634766
            ],
            "min" : [
                -1,
                2.4848852157592773,
                -2.85361909866333
            ],
            "type" : "VEC3"
        },
        {
            "bufferView" : 1,
            "componentType" : 5126,
            "count" : 96,
            "type" : "VEC3"
        },
        {
            "bufferView" : 2,
            "componentType" : 5126,
            "count" : 96,
            "type" : "VEC2"
        },
        {
            "bufferView" : 3,
            "componentType" : 5123,
            "count" : 180,
            "type" : "SCALAR"
        },
        {
            "bufferView" : 4,
            "componentType" : 5126,
            "count" : 96,
            "max" : [
                -2.4432010650634766,
                5.038303375244141,
                1.0000001192092896
            ],
            "min" : [
                -2.85361909866333,
                2.4848852157592773,
                -0.9999998807907104
            ],
            "type" : "VEC3"
        },
        {
            "bufferView" : 5,
            "componentType" : 5126,
            "count" : 96,
            "type" : "VEC3"
        },
        {
            "bufferView" : 6,
            "componentType" : 5126,
            "count" : 96,
            "type" : "VEC2"
        },
        {
            "bufferView" : 7,
            "componentType" : 5123,
            "count" : 180,
            "type" : "SCALAR"
        },
        {
            "bufferView" : 8,
            "componentType" : 5126,
            "count" : 96,
            "max" : [
                1.0000009536743164,
                5.038303375244141,
                2.853619337081909
            ],
            "min" : [
                -0.9999992251396179,
                2.4848852157592773,
                2.4432008266448975
            ],
            "type" : "VEC3"
        },
        {
            "bufferView" : 9,
            "componentType" : 5126,
            "count" : 96,
            "type" : "VEC3"
        },
        {
            "bufferView" : 10,
            "componentType" : 5126,
            "count" : 96,
            "type" : "VEC2"
        },
        {
            "bufferView" : 11,
            "componentType" : 5123,
            "count" : 180,
            "type" : "SCALAR"
        },
        {
            "bufferView" : 12,
            "componentType" : 5126,
            "count" : 96,
            "max" : [
                2.8536195755004883,
                5.038303375244141,
                0.9999988079071045
            ],
            "min" : [
                2.4432005882263184,
                2.4848852157592773,
                -1.0000014305114746
            ],
            "type" : "VEC3"
        },
        {
            "bufferView" : 13,
            "componentType" : 5126,
            "count" : 96,
            "type" : "VEC3"
        },
        {
            "bufferView" : 14,
            "componentType" : 5126,
            "count" : 96,
            "type" : "VEC2"
        },
        {
            "bufferView" : 15,
            "componentType" : 5123,
            "count" : 180,
            "type" : "SCALAR"
        }
    ],
    "bufferViews" : [
        {
            "buffer" : 0,
            "byteLength" : 1152,
            "byteOffset" : 0
        },
        {
            "buffer" : 0,
            "byteLength" : 1152,
            "byteOffset" : 1152
        },
        {
            "buffer" : 0,
            "byteLength" : 768,
            "byteOffset" : 2304
        },
        {
            "buffer" : 0,
            "byteLength" : 360,
            "byteOffset" : 3072
        },
        {
            "buffer" : 0,
            "byteLength" : 1152,
            "byteOffset" : 3432
        },
        {
            "buffer" : 0,
            "byteLength" : 1152,
            "byteOffset" : 4584
        },
        {
            "buffer" : 0,
            "byteLength" : 768,
            "byteOffset" : 5736
        },
        {
            "buffer" : 0,
            "byteLength" : 360,
            "byteOffset" : 6504
        },
        {
            "buffer" : 0,
            "byteLength" : 1152,
            "byteOffset" : 6864
        },
        {
            "buffer" : 0,
            "byteLength" : 1152,
            "byteOffset" : 8016
        },
        {
            "buffer" : 0,
            "byteLength" : 768,
            "byteOffset" : 9168
        },
        {
            "buffer" : 0,
            "byteLength" : 360,
            "byteOffset" : 9936
        },
        {
            "buffer" : 0,
            "byteLength" : 1152,
            "byteOffset" : 10296
        },
        {
            "buffer" : 0,
            "byteLength" : 1152,
            "byteOffset" : 11448
        },
        {
            "buffer" : 0,
            "byteLength" : 768,
            "byteOffset" : 12600
        },
        {
            "buffer" : 0,
            "byteLength" : 360,
            "byteOffset" : 13368
        }
    ],
    "buffers" : [
        {
            "byteLength" : 13728,
            "uri" : "data:application/octet-stream;base64,"
        }
    ]
}
