{
    "asset" : {
        "generator" : "Khronos glTF Blender I/O v1.7.33",
        "version" : "2.0"
    },
    "scene" : 0,
    "scenes" : [
        {
            "name" : "Scene",
            "nodes" : [
                0,
                1,
                2,
                3
            ]
        }
    ],
    "nodes" : [
        {
            "mesh" : 0,
            "name" : "wallUpPlane"
        },
        {
            "mesh" : 1,
            "name" : "wallLeftPlane"
        },
        {
            "mesh" : 2,
            "name" : "wallDownPlane"
        },
        {
            "mesh" : 3,
            "name" : "wallRightPlane"
        }
    ],
    "materials" : [
        {
            "doubleSided" : true,
            "emissiveFactor" : [
                0.01840015782682425,
                0.8937599047828257,
                1
            ],
            "name" : "Material.003",
            "pbrMetallicRoughness" : {
                "baseColorFactor" : [
                    0.800000011920929,
                    0.800000011920929,
                    0.800000011920929,
                    1
                ],
                "metallicFactor" : 0,
                "roughnessFactor" : 0.5
            }
        }
    ],
    "meshes" : [
        {
            "name" : "Plane.006",
            "primitives" : [
                {
                    "attributes" : {
                        "POSITION" : 0,
                        "NORMAL" : 1,
                        "TEXCOORD_0" : 2
                    },
                    "indices" : 3,
                    "material" : 0
                }
            ]
        },
        {
            "name" : "Plane.015",
            "primitives" : [
                {
                    "attributes" : {
                        "POSITION" : 4,
                        "NORMAL" : 5,
                        "TEXCOORD_0" : 6
                    },
                    "indices" : 7,
                    "material" : 0
                }
            ]
        },
        {
            "name" : "Plane.016",
            "primitives" : [
                {
                    "attributes" : {
                        "POSITION" : 8,
                        "NORMAL" : 9,
                        "TEXCOORD_0" : 10
                    },
                    "indices" : 11,
                    "material" : 0
                }
            ]
        },
        {
            "name" : "Plane.017",
            "primitives" : [
                {
                    "attributes" : {
                        "POSITION" : 12,
                        "NORMAL" : 13,
                        "TEXCOORD_0" : 14
                    },
                    "indices" : 15,
                    "material" : 0
                }
            ]
        }
    ],
    "accessors" : [
        {
            "bufferView" : 0,
            "componentType" : 5126,
            "count" : 222,
            "max" : [
                2,
                5.245699882507324,
                -2.798781156539917
            ],
            "min" : [
                -2,
                3.604487419128418,
                -3
            ],
            "type" : "VEC3"
        },
        {
            "bufferView" : 1,
            "componentType" : 5126,
            "count" : 222,
            "type" : "VEC3"
        },
        {
            "bufferView" : 2,
            "componentType" : 5126,
            "count" : 222,
            "type" : "VEC2"
        },
        {
            "bufferView" : 3,
            "componentType" : 5123,
            "count" : 420,
            "type" : "SCALAR"
        },
        {
            "bufferView" : 4,
            "componentType" : 5126,
            "count" : 202,
            "max" : [
                -2.798781156539917,
                5.245699882507324,
                2.000000238418579
            ],
            "min" : [
                -3,
                3.604487419128418,
                -1.9999998807907104
            ],
            "type" : "VEC3"
        },
        {
            "bufferView" : 5,
            "componentType" : 5126,
            "count" : 202,
            "type" : "VEC3"
        },
        {
            "bufferView" : 6,
            "componentType" : 5126,
            "count" : 202,
            "type" : "VEC2"
        },
        {
            "bufferView" : 7,
            "componentType" : 5123,
            "count" : 420,
            "type" : "SCALAR"
        },
        {
            "bufferView" : 8,
            "componentType" : 5126,
            "count" : 280,
            "max" : [
                2.0000009536743164,
                5.245699882507324,
                3.0000007152557373
            ],
            "min" : [
                -1.9999990463256836,
                3.604487419128418,
                2.7987804412841797
            ],
            "type" : "VEC3"
        },
        {
            "bufferView" : 9,
            "componentType" : 5126,
            "count" : 280,
            "type" : "VEC3"
        },
        {
            "bufferView" : 10,
            "componentType" : 5126,
            "count" : 280,
            "type" : "VEC2"
        },
        {
            "bufferView" : 11,
            "componentType" : 5123,
            "count" : 420,
            "type" : "SCALAR"
        },
        {
            "bufferView" : 12,
            "componentType" : 5126,
            "count" : 258,
            "max" : [
                3.0000009536743164,
                5.245699882507324,
                1.999998688697815
            ],
            "min" : [
                2.7987802028656006,
                3.604487419128418,
                -2.0000014305114746
            ],
            "type" : "VEC3"
        },
        {
            "bufferView" : 13,
            "componentType" : 5126,
            "count" : 258,
            "type" : "VEC3"
        },
        {
            "bufferView" : 14,
            "componentType" : 5126,
            "count" : 258,
            "type" : "VEC2"
        },
        {
            "bufferView" : 15,
            "componentType" : 5123,
            "count" : 420,
            "type" : "SCALAR"
        }
    ],
    "bufferViews" : [
        {
            "buffer" : 0,
            "byteLength" : 2664,
            "byteOffset" : 0
        },
        {
            "buffer" : 0,
            "byteLength" : 2664,
            "byteOffset" : 2664
        },
        {
            "buffer" : 0,
            "byteLength" : 1776,
            "byteOffset" : 5328
        },
        {
            "buffer" : 0,
            "byteLength" : 840,
            "byteOffset" : 7104
        },
        {
            "buffer" : 0,
            "byteLength" : 2424,
            "byteOffset" : 7944
        },
        {
            "buffer" : 0,
            "byteLength" : 2424,
            "byteOffset" : 10368
        },
        {
            "buffer" : 0,
            "byteLength" : 1616,
            "byteOffset" : 12792
        },
        {
            "buffer" : 0,
            "byteLength" : 840,
            "byteOffset" : 14408
        },
        {
            "buffer" : 0,
            "byteLength" : 3360,
            "byteOffset" : 15248
        },
        {
            "buffer" : 0,
            "byteLength" : 3360,
            "byteOffset" : 18608
        },
        {
            "buffer" : 0,
            "byteLength" : 2240,
            "byteOffset" : 21968
        },
        {
            "buffer" : 0,
            "byteLength" : 840,
            "byteOffset" : 24208
        },
        {
            "buffer" : 0,
            "byteLength" : 3096,
            "byteOffset" : 25048
        },
        {
            "buffer" : 0,
            "byteLength" : 3096,
            "byteOffset" : 28144
        },
        {
            "buffer" : 0,
            "byteLength" : 2064,
            "byteOffset" : 31240
        },
        {
            "buffer" : 0,
            "byteLength" : 840,
            "byteOffset" : 33304
        }
    ],
    "buffers" : [
        {
            "byteLength" : 34144,
            "uri" : "data:application/octet-stream;base64,"
        }
    ]
}
