{
    "asset" : {
        "generator" : "Khronos glTF Blender I/O v1.7.33",
        "version" : "2.0"
    },
    "scene" : 0,
    "scenes" : [
        {
            "name" : "Scene",
            "nodes" : [
                0,
                1,
                2,
                3
            ]
        }
    ],
    "nodes" : [
        {
            "mesh" : 0,
            "name" : "windowPlaneUp"
        },
        {
            "mesh" : 1,
            "name" : "windowPlaneLeft"
        },
        {
            "mesh" : 2,
            "name" : "windowPlaneDown"
        },
        {
            "mesh" : 3,
            "name" : "windowPlaneRight"
        }
    ],
    "materials" : [
        {
            "doubleSided" : true,
            "emissiveFactor" : [
                0,
                1,
                0.45046574612285895
            ],
            "name" : "WindowMat",
            "pbrMetallicRoughness" : {
                "baseColorFactor" : [
                    0.800000011920929,
                    0.800000011920929,
                    0.800000011920929,
                    1
                ],
                "metallicFactor" : 0,
                "roughnessFactor" : 0.5
            }
        }
    ],
    "meshes" : [
        {
            "name" : "Plane.018",
            "primitives" : [
                {
                    "attributes" : {
                        "POSITION" : 0,
                        "NORMAL" : 1,
                        "TEXCOORD_0" : 2
                    },
                    "indices" : 3,
                    "material" : 0
                }
            ]
        },
        {
            "name" : "Plane.019",
            "primitives" : [
                {
                    "attributes" : {
                        "POSITION" : 4,
                        "NORMAL" : 5,
                        "TEXCOORD_0" : 6
                    },
                    "indices" : 7,
                    "material" : 0
                }
            ]
        },
        {
            "name" : "Plane.020",
            "primitives" : [
                {
                    "attributes" : {
                        "POSITION" : 8,
                        "NORMAL" : 9,
                        "TEXCOORD_0" : 10
                    },
                    "indices" : 11,
                    "material" : 0
                }
            ]
        },
        {
            "name" : "Plane.021",
            "primitives" : [
                {
                    "attributes" : {
                        "POSITION" : 12,
                        "NORMAL" : 13,
                        "TEXCOORD_0" : 14
                    },
                    "indices" : 15,
                    "material" : 0
                }
            ]
        }
    ],
    "accessors" : [
        {
            "bufferView" : 0,
            "componentType" : 5126,
            "count" : 138,
            "max" : [
                1.25,
                5.260089874267578,
                -2.4938013553619385
            ],
            "min" : [
                -1.25,
                2.760089874267578,
                -2.8685262203216553
            ],
            "type" : "VEC3"
        },
        {
            "bufferView" : 1,
            "componentType" : 5126,
            "count" : 138,
            "type" : "VEC3"
        },
        {
            "bufferView" : 2,
            "componentType" : 5126,
            "count" : 138,
            "type" : "VEC2"
        },
        {
            "bufferView" : 3,
            "componentType" : 5123,
            "count" : 288,
            "type" : "SCALAR"
        },
        {
            "bufferView" : 4,
            "componentType" : 5126,
            "count" : 138,
            "max" : [
                -2.4938013553619385,
                5.260089874267578,
                1.2500001192092896
            ],
            "min" : [
                -2.8685262203216553,
                2.760089874267578,
                -1.2499998807907104
            ],
            "type" : "VEC3"
        },
        {
            "bufferView" : 5,
            "componentType" : 5126,
            "count" : 138,
            "type" : "VEC3"
        },
        {
            "bufferView" : 6,
            "componentType" : 5126,
            "count" : 138,
            "type" : "VEC2"
        },
        {
            "bufferView" : 7,
            "componentType" : 5123,
            "count" : 288,
            "type" : "SCALAR"
        },
        {
            "bufferView" : 8,
            "componentType" : 5126,
            "count" : 169,
            "max" : [
                1.2500009536743164,
                5.260089874267578,
                2.8685266971588135
            ],
            "min" : [
                -1.2499991655349731,
                2.760089874267578,
                2.4938008785247803
            ],
            "type" : "VEC3"
        },
        {
            "bufferView" : 9,
            "componentType" : 5126,
            "count" : 169,
            "type" : "VEC3"
        },
        {
            "bufferView" : 10,
            "componentType" : 5126,
            "count" : 169,
            "type" : "VEC2"
        },
        {
            "bufferView" : 11,
            "componentType" : 5123,
            "count" : 288,
            "type" : "SCALAR"
        },
        {
            "bufferView" : 12,
            "componentType" : 5126,
            "count" : 179,
            "max" : [
                2.8685269355773926,
                5.260089874267578,
                1.2499988079071045
            ],
            "min" : [
                2.493800640106201,
                2.760089874267578,
                -1.2500014305114746
            ],
            "type" : "VEC3"
        },
        {
            "bufferView" : 13,
            "componentType" : 5126,
            "count" : 179,
            "type" : "VEC3"
        },
        {
            "bufferView" : 14,
            "componentType" : 5126,
            "count" : 179,
            "type" : "VEC2"
        },
        {
            "bufferView" : 15,
            "componentType" : 5123,
            "count" : 288,
            "type" : "SCALAR"
        }
    ],
    "bufferViews" : [
        {
            "buffer" : 0,
            "byteLength" : 1656,
            "byteOffset" : 0
        },
        {
            "buffer" : 0,
            "byteLength" : 1656,
            "byteOffset" : 1656
        },
        {
            "buffer" : 0,
            "byteLength" : 1104,
            "byteOffset" : 3312
        },
        {
            "buffer" : 0,
            "byteLength" : 576,
            "byteOffset" : 4416
        },
        {
            "buffer" : 0,
            "byteLength" : 1656,
            "byteOffset" : 4992
        },
        {
            "buffer" : 0,
            "byteLength" : 1656,
            "byteOffset" : 6648
        },
        {
            "buffer" : 0,
            "byteLength" : 1104,
            "byteOffset" : 8304
        },
        {
            "buffer" : 0,
            "byteLength" : 576,
            "byteOffset" : 9408
        },
        {
            "buffer" : 0,
            "byteLength" : 2028,
            "byteOffset" : 9984
        },
        {
            "buffer" : 0,
            "byteLength" : 2028,
            "byteOffset" : 12012
        },
        {
            "buffer" : 0,
            "byteLength" : 1352,
            "byteOffset" : 14040
        },
        {
            "buffer" : 0,
            "byteLength" : 576,
            "byteOffset" : 15392
        },
        {
            "buffer" : 0,
            "byteLength" : 2148,
            "byteOffset" : 15968
        },
        {
            "buffer" : 0,
            "byteLength" : 2148,
            "byteOffset" : 18116
        },
        {
            "buffer" : 0,
            "byteLength" : 1432,
            "byteOffset" : 20264
        },
        {
            "buffer" : 0,
            "byteLength" : 576,
            "byteOffset" : 21696
        }
    ],
    "buffers" : [
        {
            "byteLength" : 22272,
            "uri" : "data:application/octet-stream;base64,"
        }
    ]
}
