{
    "asset" : {
        "generator" : "Khronos glTF Blender I/O v1.7.33",
        "version" : "2.0"
    },
    "scene" : 0,
    "scenes" : [
        {
            "name" : "Scene",
            "nodes" : [
                0
            ]
        }
    ],
    "nodes" : [
        {
            "mesh" : 0,
            "name" : "Extract2"
        }
    ],
    "meshes" : [
        {
            "name" : "Extract2.001",
            "primitives" : [
                {
                    "attributes" : {
                        "POSITION" : 0,
                        "NORMAL" : 1
                    },
                    "indices" : 2
                }
            ]
        }
    ],
    "accessors" : [
        {
            "bufferView" : 0,
            "componentType" : 5126,
            "count" : 27512,
            "max" : [
                1.0169564485549927,
                0.907383918762207,
                0.8449617624282837
            ],
            "min" : [
                -1.0169562101364136,
                -0.948244571685791,
                -0.6906124353408813
            ],
            "type" : "VEC3"
        },
        {
            "bufferView" : 1,
            "componentType" : 5126,
            "count" : 27512,
            "type" : "VEC3"
        },
        {
            "bufferView" : 2,
            "componentType" : 5123,
            "count" : 41268,
            "type" : "SCALAR"
        }
    ],
    "bufferViews" : [
        {
            "buffer" : 0,
            "byteLength" : 330144,
            "byteOffset" : 0
        },
        {
            "buffer" : 0,
            "byteLength" : 330144,
            "byteOffset" : 330144
        },
        {
            "buffer" : 0,
            "byteLength" : 82536,
            "byteOffset" : 660288
        }
    ],
    "buffers" : [
        {
            "byteLength" : 742824,
            "uri" : "data:application/octet-stream;base64,"
        }
    ]
}
