{
    "asset" : {
        "generator" : "Khronos glTF Blender I/O v1.7.33",
        "version" : "2.0"
    },
    "scene" : 0,
    "scenes" : [
        {
            "name" : "Scene",
            "nodes" : [
                0
            ]
        }
    ],
    "nodes" : [
        {
            "mesh" : 0,
            "name" : "Hand_Right"
        }
    ],
    "meshes" : [
        {
            "name" : "Character1_13.029",
            "primitives" : [
                {
                    "attributes" : {
                        "POSITION" : 0,
                        "NORMAL" : 1
                    },
                    "indices" : 2
                }
            ]
        }
    ],
    "accessors" : [
        {
            "bufferView" : 0,
            "componentType" : 5126,
            "count" : 2948,
            "max" : [
                0.09298819303512573,
                0.10329613089561462,
                0.4474181532859802
            ],
            "min" : [
                -0.7574439644813538,
                -0.8224081993103027,
                -0.3002192974090576
            ],
            "type" : "VEC3"
        },
        {
            "bufferView" : 1,
            "componentType" : 5126,
            "count" : 2948,
            "type" : "VEC3"
        },
        {
            "bufferView" : 2,
            "componentType" : 5123,
            "count" : 17676,
            "type" : "SCALAR"
        }
    ],
    "bufferViews" : [
        {
            "buffer" : 0,
            "byteLength" : 35376,
            "byteOffset" : 0
        },
        {
            "buffer" : 0,
            "byteLength" : 35376,
            "byteOffset" : 35376
        },
        {
            "buffer" : 0,
            "byteLength" : 35352,
            "byteOffset" : 70752
        }
    ],
    "buffers" : [
        {
            "byteLength" : 106104,
            "uri" : "data:application/octet-stream;base64,"
        }
    ]
}
